<?xml version="1.0" encoding="UTF-8"?>
<svg data-bbox="32.58 21.64 461.01 254.322" viewBox="0 0 526.85 298.45" xmlns="http://www.w3.org/2000/svg" data-type="color">
    <g>
        <path fill="#ec6608" d="M444.77 77.06h11.44l-5.72-5.48-5.72 5.48z" data-color="1"/>
        <path fill="#ec6608" d="m435.58 85.88 11.01 10.56h7.81l11.01-10.56-7.12-6.82h-15.6l-7.11 6.82z" data-color="1"/>
        <path fill="#ec6608" d="m353.78 70.2 7.16 6.86h15.52l7.16-6.86-10.97-10.52h-7.9L353.78 70.2z" data-color="1"/>
        <path fill="#ec6608" d="m402.86 85.88 11.01 10.56h7.81l11.01-10.56-7.12-6.82h-15.59l-7.12 6.82z" data-color="1"/>
        <path fill="#ec6608" d="m483.21 100.18 1.82-1.74h-3.64l1.82 1.74z" data-color="1"/>
        <path d="M493.41 96.44c-.07-1.01-.15-2.02-.25-3.03L490 96.44h3.41z" fill="#ec6608" data-color="1"/>
        <path fill="#ec6608" d="m344.54 79.06-7.12 6.82 11.02 10.56h7.81l11.01-10.56-7.12-6.82h-15.6z" data-color="1"/>
        <path d="M488.66 74.05c-.69-1.87-1.45-3.71-2.27-5.52l-1.74 1.67 4.01 3.85z" fill="#ec6608" data-color="1"/>
        <path fill="#ec6608" d="M464.99 57.69h3.73l-1.87-1.79-1.86 1.79z" data-color="1"/>
        <path fill="#ec6608" d="m408.25 59.68 9.53 9.14 9.53-9.14h-19.06z" data-color="1"/>
        <path fill="#ec6608" d="M366.83 57.69h3.73l-1.86-1.79-1.87 1.79z" data-color="1"/>
        <path fill="#ec6608" d="m423.49 77.06-5.71-5.48-5.72 5.48h11.43z" data-color="1"/>
        <path fill="#ec6608" d="m370.14 85.88 11.01 10.56h7.81l11.02-10.56-7.12-6.82h-15.6l-7.12 6.82z" data-color="1"/>
        <path fill="#ec6608" d="M379.34 77.06h11.44l-5.72-5.48-5.72 5.48z" data-color="1"/>
        <path d="M493.59 101.76c0-1.11-.03-2.22-.07-3.32h-5.6l-3.27 3.13 8.54 8.19c.26-2.64.4-5.3.4-8z" fill="#ec6608" data-color="1"/>
        <path fill="#ec6608" d="M386.88 98.44h-3.65l1.83 1.74 1.82-1.74z" data-color="1"/>
        <path fill="#ec6608" d="m401.42 84.5 5.67-5.44h-11.35l5.68 5.44z" data-color="1"/>
        <path fill="#ec6608" d="M391.85 96.44h19.14l-9.57-9.17-9.57 9.17z" data-color="1"/>
        <path fill="#ec6608" d="m368.7 84.5 5.68-5.44h-11.36l5.68 5.44z" data-color="1"/>
        <path fill="#ec6608" d="M359.13 96.44h19.14l-9.57-9.17-9.57 9.17z" data-color="1"/>
        <path fill="#ec6608" d="M477.49 77.06h11.44l-5.72-5.48-5.72 5.48z" data-color="1"/>
        <path fill="#ec6608" d="M419.6 98.44h-3.65l1.83 1.74 1.82-1.74z" data-color="1"/>
        <path fill="#ec6608" d="m466.85 84.5 5.68-5.44h-11.36l5.68 5.44z" data-color="1"/>
        <path fill="#ec6608" d="m434.13 84.5 5.68-5.44h-11.35l5.67 5.44z" data-color="1"/>
        <path d="m468.29 85.88 11.01 10.56h7.81l5.74-5.51a79.35 79.35 0 0 0-2.54-11.88H475.4l-7.11 6.83z" fill="#ec6608" data-color="1"/>
        <path fill="#ec6608" d="M457.28 96.44h19.14l-9.57-9.17-9.57 9.17z" data-color="1"/>
        <path fill="#ec6608" d="M452.32 98.44h-3.65l1.82 1.74 1.83-1.74z" data-color="1"/>
        <path fill="#ec6608" d="M424.56 96.44h19.14l-9.57-9.17-9.57 9.17z" data-color="1"/>
        <path fill="#ec6608" d="m451.93 70.2 7.16 6.86h15.52l7.16-6.86-10.97-10.52h-7.89L451.93 70.2z" data-color="1"/>
        <path fill="#ec6608" d="m432.69 148.62-11.92-11.43h-5.99l-11.92 11.43 6.21 5.95h17.41l6.21-5.95z" data-color="1"/>
        <path fill="#ec6608" d="M424.4 156.57h-13.25l6.63 6.35 6.62-6.35z" data-color="1"/>
        <path fill="#ec6608" d="M391.68 156.57h-13.25l6.63 6.35 6.62-6.35z" data-color="1"/>
        <path fill="#ec6608" d="M351.42 135.2h1.84l-.92-.88-.92.88z" data-color="1"/>
        <path d="M491.98 117.81h-23.1l14.33 13.74 6.99-6.7c.7-2.31 1.29-4.65 1.78-7.04z" fill="#ec6608" data-color="1"/>
        <path fill="#ec6608" d="M482.29 135.2h1.84l-.92-.88-.92.88z" data-color="1"/>
        <path fill="#ec6608" d="m465.41 148.62-11.92-11.43h-6l-11.91 11.43 6.21 5.95h17.41l6.21-5.95z" data-color="1"/>
        <path fill="#ec6608" d="m449.05 164.3-8.06-7.73h-13.71l-8.06 7.73 10.06 9.65h9.71l10.06-9.65z" data-color="1"/>
        <path fill="#ec6608" d="m416.33 164.3-8.06-7.73h-13.71l-8.06 7.73 10.07 9.65h9.7l10.06-9.65z" data-color="1"/>
        <path fill="#ec6608" d="M457.12 156.57h-13.25l6.62 6.35 6.63-6.35z" data-color="1"/>
        <path fill="#ec6608" d="m434.13 178.6 2.77-2.65h-5.54l2.77 2.65z" data-color="1"/>
        <path fill="#ec6608" d="m481.77 132.93-14.92-14.3-14.92 14.3 2.36 2.27h25.12l2.36-2.27z" data-color="1"/>
        <path fill="#ec6608" d="M404.19 175.95h-5.54l2.77 2.65 2.77-2.65z" data-color="1"/>
        <path fill="#ec6608" d="m399.98 148.62-11.92-11.43h-6l-11.92 11.43 6.21 5.95h17.41l6.22-5.95z" data-color="1"/>
        <path fill="#ec6608" d="m383.62 132.93-14.92-14.3-14.92 14.3 2.36 2.27h25.12l2.36-2.27z" data-color="1"/>
        <path fill="#ec6608" d="M384.14 135.2h1.84l-.92-.88-.92.88z" data-color="1"/>
        <path fill="#ec6608" d="m370.73 117.81 14.33 13.74 14.33-13.74h-28.66z" data-color="1"/>
        <path fill="#ec6608" d="m338.01 117.81 14.33 13.74 14.33-13.74h-28.66z" data-color="1"/>
        <path fill="#ec6608" d="M411.89 137.19h-20.95l10.48 10.05 10.47-10.05z" data-color="1"/>
        <path fill="#ec6608" d="M379.18 137.19h-20.96l10.48 10.05 10.48-10.05z" data-color="1"/>
        <path fill="#ec6608" d="M444.61 137.19h-20.95l10.47 10.05 10.48-10.05z" data-color="1"/>
        <path fill="#ec6608" d="m436.16 117.81 14.33 13.74 14.33-13.74h-28.66z" data-color="1"/>
        <path fill="#ec6608" d="m416.33 132.93-14.91-14.3-14.92 14.3 2.36 2.27h25.11l2.36-2.27z" data-color="1"/>
        <path fill="#ec6608" d="M449.57 135.2h1.84l-.92-.88-.92.88z" data-color="1"/>
        <path fill="#ec6608" d="m449.05 132.93-14.92-14.3-14.91 14.3 2.36 2.27h25.11l2.36-2.27z" data-color="1"/>
        <path fill="#ec6608" d="M416.86 135.2h1.83l-.91-.88-.92.88z" data-color="1"/>
        <path fill="#ec6608" d="m403.45 117.81 14.33 13.74 14.32-13.74h-28.65z" data-color="1"/>
        <path fill="#ec6608" d="M477.33 137.19h-20.96l10.48 10.05 10.48-10.05z" data-color="1"/>
        <path d="M346.56 57.69h17.39l3.31-3.17-10.13-9.71a79.83 79.83 0 0 0-10.57 12.88z" fill="#ec6608" data-color="1"/>
        <path fill="#ec6608" d="m401.42 150-4.77 4.57h9.54l-4.77-4.57z" data-color="1"/>
        <path fill="#ec6608" d="M373.45 57.69h23.22l3.31-3.17-14.83-14.22h-.18l-14.83 14.22 3.31 3.17z" data-color="1"/>
        <path d="m358.56 43.42 10.14 9.72 13.38-12.83h-20.01c-1.2 1-2.37 2.04-3.51 3.11z" fill="#ec6608" data-color="1"/>
        <path fill="#ec6608" d="m368.7 150-4.77 4.57h9.54L368.7 150z" data-color="1"/>
        <path d="m367.26 148.62-11.92-11.43h-6l-5.11 4.9c2.6 4.45 5.62 8.63 9 12.49h7.81l6.22-5.96z" fill="#ec6608" data-color="1"/>
        <path d="M355.04 156.57c.62.66 1.25 1.31 1.89 1.95l2.03-1.95h-3.92z" fill="#ec6608" data-color="1"/>
        <path d="m385.06 37.45 14.92-14.3-.33-.32a79.369 79.369 0 0 0-22.18 7.34l7.59 7.28z" fill="#ec6608" data-color="1"/>
        <path d="M471.6 57.69h8.78a79.317 79.317 0 0 0-6.49-8.54l-5.6 5.37 3.31 3.17z" fill="#ec6608" data-color="1"/>
        <path d="m488.87 128.89-4.22 4.05 1.86 1.79c.86-1.92 1.65-3.86 2.36-5.84z" fill="#ec6608" data-color="1"/>
        <path d="m466.85 53.13 5.71-5.48c-2.4-2.62-4.97-5.07-7.69-7.36h-11.4l13.38 12.84z" fill="#ec6608" data-color="1"/>
        <path d="m437.99 25.47 12.5 11.98 4.44-4.26c-5.27-3.2-10.95-5.8-16.94-7.72z" fill="#ec6608" data-color="1"/>
        <path fill="#ec6608" d="m450.4 40.3-14.82 14.22 3.3 3.17h23.22l3.31-3.17-14.82-14.22h-.19z" data-color="1"/>
        <path d="m350.9 132.93-14.92-14.3-.7.67a80.178 80.178 0 0 0 5.36 15.9h7.89l2.37-2.27z" fill="#ec6608" data-color="1"/>
        <path d="m417.78 37.45 14.24-13.65a80.338 80.338 0 0 0-18.54-2.16c-3.26 0-6.48.2-9.64.58l-.97.93 14.91 14.3z" fill="#ec6608" data-color="1"/>
        <path d="M471.89 156.57H460l-8.06 7.73 4.98 4.78a80.204 80.204 0 0 0 14.97-12.51z" fill="#ec6608" data-color="1"/>
        <path d="m399.98 179.98-4.21-4.04H383.2c5.13 2.1 10.52 3.68 16.12 4.68l.66-.64z" fill="#ec6608" data-color="1"/>
        <path fill="#ec6608" d="m417.78 165.68-8.63 8.27h17.25l-8.62-8.27z" data-color="1"/>
        <path d="m455.18 170.17-4.68-4.49-8.62 8.27h6.38c2.36-1.15 4.68-2.41 6.92-3.78z" fill="#ec6608" data-color="1"/>
        <path d="m439.79 175.95-2.39 2.29c2.16-.67 4.28-1.44 6.35-2.29h-3.96z" fill="#ec6608" data-color="1"/>
        <path fill="#ec6608" d="m434.13 150-4.77 4.57h9.55l-4.78-4.57z" data-color="1"/>
        <path d="m432.33 179.63-3.85-3.69h-21.41l-4.21 4.04 1.42 1.36c3.02.34 6.08.53 9.19.53 6.5 0 12.81-.78 18.86-2.24z" fill="#ec6608" data-color="1"/>
        <path d="M462.39 38.31a79.198 79.198 0 0 0-5.71-4.03l-4.2 4.03h9.91z" fill="#ec6608" data-color="1"/>
        <path d="M485.34 137.19h-5.13l-11.92 11.43 5.78 5.54a80.515 80.515 0 0 0 11.27-16.97z" fill="#ec6608" data-color="1"/>
        <path d="m385.06 165.68-7.85 7.53c.49.25.99.5 1.49.74h14.99l-8.63-8.27z" fill="#ec6608" data-color="1"/>
        <path fill="#ec6608" d="m466.85 150-4.77 4.57h9.54l-4.77-4.57z" data-color="1"/>
        <path d="m383.07 38.31-7.48-7.17a79.372 79.372 0 0 0-11.04 7.17h18.52z" fill="#ec6608" data-color="1"/>
        <path d="M375.55 156.57h-13.71l-3.48 3.34a80.492 80.492 0 0 0 16.98 12.33l8.28-7.93-8.07-7.74z" fill="#ec6608" data-color="1"/>
        <path fill="#ec6608" d="m417.78 102.95-13.43 12.87h26.85l-13.42-12.87z" data-color="1"/>
        <path fill="#ec6608" d="M354.16 98.44h-3.64l1.82 1.74 1.82-1.74z" data-color="1"/>
        <path fill="#ec6608" d="m401.47 115.82 14.86-14.25-3.26-3.13h-23.31l-3.26 3.13 14.87 14.25h.1z" data-color="1"/>
        <path fill="#ec6608" d="m385.06 102.95-13.43 12.87h26.85l-13.42-12.87z" data-color="1"/>
        <path fill="#ec6608" d="m466.9 115.82 14.87-14.25-3.27-3.13h-23.3l-3.27 3.13 14.87 14.25h.1z" data-color="1"/>
        <path fill="#ec6608" d="m368.75 115.82 14.87-14.25-3.27-3.13h-23.3l-3.27 3.13 14.87 14.25h.1z" data-color="1"/>
        <path fill="#ec6608" d="m434.19 115.82 14.86-14.25-3.26-3.13h-23.31l-3.26 3.13 14.86 14.25h.11z" data-color="1"/>
        <path fill="#ec6608" d="m450.49 102.95-13.42 12.87h26.85l-13.43-12.87z" data-color="1"/>
        <path fill="#ec6608" d="m352.34 102.95-13.42 12.87h26.85l-13.43-12.87z" data-color="1"/>
        <path d="M341.6 137.19c.52 1.05 1.06 2.08 1.62 3.11l3.24-3.11h-4.86z" fill="#ec6608" data-color="1"/>
        <path d="m335.98 87.27-1.58 1.51c-.41 2.52-.7 5.07-.87 7.66h12.02l-9.57-9.17z" fill="#ec6608" data-color="1"/>
        <path d="M341.66 79.06h-5.04a85.88 85.88 0 0 0-1.27 4.84l.63.6 5.68-5.44z" fill="#ec6608" data-color="1"/>
        <path d="m336.03 115.82 14.87-14.25-3.27-3.13h-14.21c-.04 1.1-.07 2.21-.07 3.32 0 4.26.34 8.45.98 12.53l1.6 1.53h.1z" fill="#ec6608" data-color="1"/>
        <path d="M337.24 77.06h6.5l7.16-6.86-7.54-7.23a79.29 79.29 0 0 0-6.12 14.09z" fill="#ec6608" data-color="1"/>
        <path d="m492.9 112.24-9.69-9.29-13.42 12.87h22.57c.2-1.18.39-2.38.54-3.58z" fill="#ec6608" data-color="1"/>
        <path fill="#ec6608" d="M346.62 77.06h11.44l-5.72-5.48-5.72 5.48z" data-color="1"/>
        <path fill="#ec6608" d="m386.5 70.2 7.16 6.86h15.51l7.16-6.86-10.97-10.52h-7.89L386.5 70.2z" data-color="1"/>
        <path fill="#ec6608" d="m403.28 57.69-1.86-1.79-1.87 1.79h3.73z" data-color="1"/>
        <path fill="#ec6608" d="m401.42 24.53-14.37 13.78h28.74l-14.37-13.78z" data-color="1"/>
        <path d="m344.38 61.18 7.96 7.64 9.53-9.14h-16.59c-.3.5-.61 1-.9 1.5z" fill="#ec6608" data-color="1"/>
        <path fill="#ec6608" d="m385.06 68.82 9.53-9.14h-19.06l9.53 9.14z" data-color="1"/>
        <path fill="#ec6608" d="M414.8 40.3h-26.77l13.39 12.83L414.8 40.3z" data-color="1"/>
        <path d="m483.21 68.82 2.28-2.19a83.51 83.51 0 0 0-3.83-6.95h-7.98l9.53 9.14z" fill="#ec6608" data-color="1"/>
        <path fill="#ec6608" d="M430.19 59.68 419.22 70.2l7.16 6.86h15.51l7.16-6.86-10.97-10.52h-7.89z" data-color="1"/>
        <path fill="#ec6608" d="m417.68 40.3-14.82 14.22 3.3 3.17h23.23l3.3-3.17-14.82-14.22h-.19z" data-color="1"/>
        <path fill="#ec6608" d="m450.49 68.82 9.53-9.14h-19.06l9.53 9.14z" data-color="1"/>
        <path fill="#ec6608" d="M432.27 57.69H436l-1.87-1.79-1.86 1.79z" data-color="1"/>
        <path fill="#ec6608" d="m434.13 24.53-14.37 13.78h28.74l-14.37-13.78z" data-color="1"/>
        <path fill="#ec6608" d="m420.75 40.3 13.38 12.83 13.39-12.83h-26.77z" data-color="1"/>
        <path d="M395.84 180.5c-.3 1.01-.52 2.01-.65 2.3-.45.95-2.81 8.65-3.32 13-.03.23-.12.44-.27.62-1.97 2.39-2.22 4.38-2.54 5.55-.33 1.21-.94 2.49-1.71 3.61-.54.78-2.95 2.16-3.02 8.16-.04 3.57-1.35 11.76.77 12.39 2.2.65-.7 4.24-1.06 4.86-.5.85-2.91.33-5.13 2.52-.21.21-.51.32-.81.32-1.05.01-2.06.22-2.9 1.97-.83 1.74-1.25 5.37-1.36 6.38-.02.16-.07.32-.15.46-.27.46-.89 1.82-1.04 4.67-.2 3.65 2.35 5.09 3.46 5.15 1.11.06 4.77.49 5.16-2.84.31-2.66.42-6.53.46-8.36.01-.55.4-1.01.94-1.12.49-.1 1.08-.32 1.49-.79.28-.31.68-.47 1.09-.37 1.37.32 4.35.66 6.18-1.78 2.44-3.24 3.48-8.36 3.52-8.47.04-.11 2.82-.35 3.25-1.66.43-1.31 2.29-5.73 3.57-4.87 1.28.86 2.95 3.22 3.25 3.66.26.39 1.25 2.68 3.06 2.56.52-.03 1.01.29 1.17.78.57 1.68.79 3.07 1.21 4.21.5 1.36 1.48 6.51 2.6 7.69.84 1.05.23 2.32.18 2.67-.24 1.5-.04 5.93.9 9.11.94 3.18 1.25 6.75 1.28 10.17s.64 2.8.49 4.2c-.15 1.39-.87 7.43 2.51 7.97s13.22.72 13.22.72 3.22.36 3.34-1.87c.12-2.22-3.86-3.77-5.67-4.05-1.82-.28-8.02-1.26-7.68-5.52.3-3.77 1.41-17.4 1.67-20.56.03-.42.01-1.33-.15-1.71-.35-.87-.63-2.15-.67-2.65-.1-1.33 1.39-6.85-.8-10.01-.42-.6-2.16-3.86-1.51-4.18 2.2-1.08.62-5.73-1.73-9.4a.21.21 0 0 0-.04-.06c-.17-.24-1.51-2.17-1.37-3.57.15-1.5.04-5.42-.67-6.15-.72-.72.25-3.99-1.1-5.49-.99-1.09 1.24-13.52 3.48-15.62 2.24-2.11 3.72-4.32 4.22-1.67.5 2.65 3.78 10.6 6.05 13.06 2.27 2.46 8.5 10.06 8.5 10.06s4.81 7.74 7.14 7.87c2.33.13 5.78.93 6.16-.06s-.04-4.53-1.63-4.98c-1.15-.32-3.11-.48-4.1-.55-.39-.02-.74-.24-.93-.58l-3.84-6.54a.886.886 0 0 1-.08-.17c-.28-.73-2.47-6.18-5.64-8.86-.21-.17-.35-.41-.41-.67-.61-2.74-2.29-5.64-3.28-7.18-.46-.71-.68-1.55-.62-2.39.04-.5.06-1.12.04-1.81a70.503 70.503 0 0 1-21.24 2.06c-4.55-.23-8.99-1.13-13.24-2.19z" fill="#f6e7cb" data-color="2"/>
        <path d="M369.84 183.74c-.55.23-2 .96-2.72 2.3-.86 1.6-.78 3.62.03 4.56.1.11.22.19.35.25.01 0 .02.01.03.01.36.16.62.46.71.84.14.61.46 1.39 1.24 1.47 0 0 .47-.34.9.37.43.71.74 1.4 1.15.81.4-.59 0-3.72.68-3.88.68-.16.4 2.17 1.27 1.89s.74-2.14.78-2.45c.03-.31.74-.4.9-1.37.09-.53-.11-1.19-.4-1.65-.31-.48-.27-1.1.15-1.49 1.33-1.24 3.68-3.35 5.09-4.12 1.03-.56 3.23-2.14 4.66-3.45-2-.88-4.25-2.08-6.15-3.13-3.22 3.3-7.41 7.87-8.27 8.77-.12.12-.26.21-.4.27z" fill="#f6e7cb" data-color="2"/>
        <path d="M33.56 270.65c0-2.44 1.46-3.93 3.6-4.54-1.75-.62-2.91-1.9-2.91-3.95 0-2.99 2.47-4.32 5.58-4.32 3.16 0 5.63 1.33 5.63 4.32 0 2.02-1.14 3.31-2.86 3.93 2.17.62 3.68 2.1 3.68 4.57 0 3.36-2.81 4.91-6.37 4.91-3.53 0-6.35-1.56-6.35-4.92zm6.84 3.83c1.28 0 1.65-1.66 1.16-3.78-.42-1.75-.86-2.25-.86-2.91 0-.64.59-.64.59-.96 0-.25-.27-.32-.79-.35-.22.02-.42.02-.64.02-1.93.25-2.17 2.22-1.78 4.2.42 2.13 1.39 3.78 2.32 3.78zm-.12-9.04c1.14 0 1.46-1.24 1.04-3.09-.35-1.56-1.23-3.43-2.22-3.43-1.11 0-1.26 1.58-.86 3.43.39 1.86 1.25 3.09 2.04 3.09z" fill="#f6e7cb" data-color="2"/>
        <path d="M48.25 273.52c0-1.21.99-2.2 2.2-2.2 1.21 0 2.2.99 2.2 2.2 0 1.21-.99 2.2-2.2 2.2-1.21 0-2.2-.99-2.2-2.2z" fill="#f6e7cb" data-color="2"/>
        <path d="M54.39 271.91v-.02c0-4.89 8.81-5.68 8.81-10.3 0-1.65-.72-2.62-2.37-2.62-.96 0-2.15.35-2.15 1.46 0 .84.91.91.91 2.05 0 1.28-1.21 2.05-2.44 2.05-1.58 0-2.47-.91-2.47-2.54 0-2.82 2.54-4.25 6.12-4.25h.02c3.01 0 6.94 1.11 6.94 4.69 0 5.43-10.25 7.78-10.25 11.04 0 .57.47.74.96.74 4.91-.02 8.17-3.51 9.01-4.42v4.64c0 .69-.35 1.04-1.26 1.04H58.2c-3.14 0-3.81-1.61-3.81-3.56z" fill="#f6e7cb" data-color="2"/>
        <path d="M68.76 266.75c0-6.17 3.88-8.74 7.78-8.74 3.65 0 4.17.79 4.17 1.38 0 .72-.54 1.43-1.46 1.43-.91 0-1.01-1.46-2.59-1.46-1.98 0-3.19 1.73-3.04 5.8.67-.22 1.43-.32 2.22-.32 3.56 0 6.37 2.07 6.37 5.63 0 3.36-2.57 5.09-5.9 5.23-5.97.02-7.55-3.66-7.55-8.95zm7.55 7.76c1.31 0 1.68-1.73 1.18-3.98-.42-1.85-.86-2.37-.86-3.06 0-.67.59-.67.59-1.01 0-.3-.35-.37-1.04-.37-2.25 0-2.35 2.2-1.95 4.37.5 2.79 1.15 4.05 2.08 4.05z" fill="#f6e7cb" data-color="2"/>
        <path d="M92.45 268.53c-.67 0-1.21-.13-1.62-.38-.4-.25-.76-.53-1.06-.83l-.86-.83c-.27-.26-.6-.38-.97-.38-.46 0-.8.17-1.01.52-.21.34-.34.92-.37 1.73h-2c.02-1.24.29-2.23.83-2.97.53-.74 1.35-1.11 2.43-1.11.66 0 1.19.13 1.6.38.41.25.77.53 1.07.83.3.3.59.58.86.83s.6.38.97.38c.46 0 .8-.17 1.01-.5.21-.34.34-.93.37-1.77h2c-.02 1.26-.29 2.26-.83 2.99-.52.75-1.33 1.11-2.42 1.11z" fill="#f6e7cb" data-color="2"/>
        <path d="M97.66 271.91v-.02c0-4.89 8.81-5.68 8.81-10.3 0-1.65-.72-2.62-2.37-2.62-.96 0-2.15.35-2.15 1.46 0 .84.91.91.91 2.05 0 1.28-1.21 2.05-2.44 2.05-1.58 0-2.47-.91-2.47-2.54 0-2.82 2.54-4.25 6.12-4.25h.02c3.01 0 6.94 1.11 6.94 4.69 0 5.43-10.25 7.78-10.25 11.04 0 .57.47.74.96.74 4.91-.02 8.17-3.51 9.01-4.42v4.64c0 .69-.35 1.04-1.26 1.04h-8.05c-3.11 0-3.78-1.61-3.78-3.56z" fill="#f6e7cb" data-color="2"/>
        <path d="M112.77 270.65c0-2.44 1.46-3.93 3.6-4.54-1.75-.62-2.91-1.9-2.91-3.95 0-2.99 2.47-4.32 5.58-4.32 3.16 0 5.63 1.33 5.63 4.32 0 2.02-1.14 3.31-2.86 3.93 2.17.62 3.68 2.1 3.68 4.57 0 3.36-2.81 4.91-6.37 4.91-3.54 0-6.35-1.56-6.35-4.92zm6.84 3.83c1.28 0 1.65-1.66 1.16-3.78-.42-1.75-.86-2.25-.86-2.91 0-.64.59-.64.59-.96 0-.25-.27-.32-.79-.35-.22.02-.42.02-.64.02-1.93.25-2.17 2.22-1.78 4.2.41 2.13 1.38 3.78 2.32 3.78zm-.13-9.04c1.14 0 1.46-1.24 1.04-3.09-.35-1.56-1.24-3.43-2.22-3.43-1.11 0-1.26 1.58-.86 3.43.39 1.86 1.25 3.09 2.04 3.09z" fill="#f6e7cb" data-color="2"/>
        <path d="M141.89 271.54c0-2.86 2.64-3.06 3.7-3.06 3.73 0 3.78 2.1 3.78 2.4 0 2.89-2.54.91-2.54 2.27 0 .52 1.01.94 2.42.94 2.05 0 3.06-.64 3.06-2.49 0-3.78-9.6-3.46-9.6-9.16 0-3.58 3.93-4.69 7.09-4.69 4.07 0 6.94 1.43 6.94 4.25 0 1.16-.72 2.54-2.64 2.54-2.12 0-3.09-1.23-3.09-2.52 0-1.14.91-1.21.91-2.05 0-.62-1.01-.99-2.12-.99-1.8 0-2.52.96-2.52 2.62 0 4.64 9.6 3.06 9.6 9.18 0 3.65-3.53 4.99-7.65 4.99-5.07 0-7.34-1.91-7.34-4.23z" fill="#f6e7cb" data-color="2"/>
        <path d="M157.86 268.75c0-4.76 3.11-6.96 6.54-6.96 2.64 0 5.14 1.28 5.33 3.56v.27c-.25 3.85-5.8 3.19-6.91 4.77.62 1.85 1.7 3.16 3.14 3.16 1.01 0 2.4-.54 3.14-2.1h1.23c-.69 2.57-2.74 4.27-5.53 4.27-3.83 0-6.94-2.2-6.94-6.97zm2.91 1.21c.57 0 1.06-.39 1.7-.91 1.36-1.06 3.56-1.58 3.65-3.58-.05-1.16-.54-2.4-2.12-2.4-1.33 0-1.85 1.06-1.85 3.68 0 3.01-1.95 2.05-1.95 2.82 0 .22.13.39.57.39z" fill="#f6e7cb" data-color="2"/>
        <path d="M171.06 268.75c0-4.76 3.11-6.96 6.94-6.96 3.83 0 6.94 2.2 6.94 6.96s-3.11 6.96-6.94 6.96c-3.83.01-6.94-2.19-6.94-6.96zm5.95 4.25c0 .89-1.23.12-1.23.79 0 .39.77.69 1.95.69 2.47 0 3.18-1.66 2.52-5.73-.67-4.07-1.85-5.68-3.04-5.68-1.63 0-2.27 1.58-1.46 5.68.69 3.48 1.26 3.39 1.26 4.25z" fill="#f6e7cb" data-color="2"/>
        <path d="M186.69 269.49v-1.73c0-1.98 0-5.11-.89-5.7h6.47c-.89.59-.89 3.73-.89 5.7v1.51c0 1.78.15 3.43 1.73 3.43 1.33 0 1.68-1.48 1.75-3.09v-1.85c0-1.98 0-5.11-.89-5.7h6.47c-.89.59-.89 3.73-.89 5.7v2c0 1.98 0 5.11.89 5.7h-5.58v-.64c0-1.43 2.15-1.75 2.15-2.52 0-.27-.17-.39-.42-.39-.62 0-1.48.99-1.73 1.38-.84 1.48-2.12 2.64-3.97 2.64-4.03.01-4.2-3.67-4.2-6.44z" fill="#f6e7cb" data-color="2"/>
        <path d="M202.56 269.77v-8.91c0-.79-.22-1.31-.86-1.68l5.56-1.21v11.8c0 1.98 0 5.11.89 5.7h-6.47c.88-.59.88-3.73.88-5.7z" fill="#f6e7cb" data-color="2"/>
        <path d="M215.44 269.77v-5.93c0-1.97 0-5.11-.89-5.7h6.72c-.89.59-.89 3.73-.89 5.7v7.04c-.05 2.76-1.78 2.39-1.78 3.01 0 .27.3.35 1.14.35 3.28 0 3.58-2.02 3.58-2.74 0-1.58-.84-1.63-.84-2.22 0-.84 1.8-1.41 3.21-1.41 1.6 0 3.14.54 3.14 1.98 0 2.37-1.21 5.63-6.84 5.63h-7.43c.88-.6.88-3.74.88-5.71z" fill="#f6e7cb" data-color="2"/>
        <path d="M229.78 271c0-3.63 2.96-5.51 6.02-5.51 1.19 0 2 .4 2.57.94v-.64c0-1.46-.4-2.94-2.69-2.94-.44 0-1.11.07-1.11.59 0 .59.67.34.67 1.09 0 .69-.72 1.11-2.35 1.11-1.48 0-2.02-.77-2.02-1.46 0-1.56 1.85-2.27 4.81-2.27 6.05 0 7.38 2.89 7.38 5.43v2.42c0 1.98 0 5.11.89 5.7h-5.36v-.42c0-1.8 2.15-1.75 2.15-2.52 0-.27-.17-.39-.42-.39-.54 0-1.36.86-1.7 1.26-.79 1.36-2.07 2.47-4.02 2.47-3.46 0-4.82-2.27-4.82-4.86zm6.86 1.7c1.14 0 1.73-1.38 1.73-2.91v-.12c0-2.86-1.7-2.94-2.15-2.94-1.36 0-2.05 1.75-1.83 3.8.18 1.61.99 2.17 2.25 2.17z" fill="#f6e7cb" data-color="2"/>
        <path d="M245.82 269.77v-4.81c0-.79-.22-1.31-.86-1.68l5.56-1.21v.64c0 1.43-2.15 1.75-2.15 2.52 0 .27.17.39.42.39.62 0 1.48-.99 1.73-1.38.84-1.48 2.12-2.64 3.98-2.64 4.02 0 4.2 3.68 4.2 6.44v1.73c0 1.98 0 5.11.89 5.7h-6.47c.89-.59.89-3.73.89-5.7v-1.51c0-1.78-.15-3.43-1.73-3.43-1.33 0-1.68 1.48-1.75 3.09v1.85c0 1.98 0 5.11.89 5.7h-6.47c.87-.59.87-3.73.87-5.7z" fill="#f6e7cb" data-color="2"/>
        <path d="M260.43 269.79c0-6.1 2.96-7.98 6.02-7.98 1.19 0 1.98.37 2.54.91v-1.88c0-.79-.22-1.31-.86-1.68l5.56-1.21v11.8c0 1.98 0 5.11.89 5.7H269v-.64c0-1.43 2.15-1.75 2.15-2.52 0-.27-.17-.39-.42-.39-.59 0-1.38.89-1.68 1.31-.81 1.51-2.05 2.64-3.8 2.64-3.61.01-4.82-3.34-4.82-6.06zm6.82 2.91c1.33 0 1.68-1.48 1.75-3.09v-3.41c0-2.87-1.11-3.16-1.98-3.16-1.43 0-2.52 1.36-2.07 5.38.22 2.11.91 4.28 2.3 4.28z" fill="#f6e7cb" data-color="2"/>
        <path d="M32.58 155.46v-.04c0-7.94 14.32-9.23 14.32-16.73 0-2.69-1.16-4.25-3.85-4.25-1.56 0-3.49.56-3.49 2.37 0 1.36 1.48 1.48 1.48 3.33 0 2.09-1.97 3.33-3.97 3.33-2.57 0-4.01-1.48-4.01-4.13 0-4.57 4.13-6.9 9.95-6.9h.04c4.89 0 11.27 1.8 11.27 7.62 0 8.82-16.64 12.63-16.64 17.93 0 .92.76 1.2 1.56 1.2 7.98-.04 13.28-5.69 14.64-7.18v7.54c0 1.12-.56 1.68-2.04 1.68H38.75c-5.09.01-6.17-2.6-6.17-5.77z" fill="#f6e7cb" data-color="2"/>
        <path d="M56.72 147.12c0-10.03 5.05-14.6 11.39-14.6 6.38 0 11.43 4.57 11.43 14.6s-5.05 14.6-11.43 14.6c-6.33 0-11.39-4.57-11.39-14.6zM69 159.72c2.33 0 3.09-3.77 2.09-12.39-.84-7.3-1.76-7.94-1.76-9.91 0-1.88 2.25-.72 2.25-1.64 0-.36-.6-1.04-2.85-1.04-4.05 0-4.81 4.01-3.89 12.59.91 8.57 2.51 12.39 4.16 12.39z" fill="#f6e7cb" data-color="2"/>
        <path d="M33.1 188.65v-.04c0-7.94 14.32-9.23 14.32-16.73 0-2.69-1.16-4.25-3.85-4.25-1.56 0-3.49.56-3.49 2.37 0 1.36 1.48 1.48 1.48 3.33 0 2.08-1.97 3.33-3.97 3.33-2.57 0-4.01-1.48-4.01-4.13 0-4.57 4.13-6.9 9.95-6.9h.04c4.89 0 11.27 1.8 11.27 7.62 0 8.82-16.65 12.63-16.65 17.93 0 .92.76 1.2 1.56 1.2 7.98-.04 13.28-5.7 14.64-7.18v7.54c0 1.12-.56 1.69-2.05 1.69H39.28c-5.1 0-6.18-2.61-6.18-5.78z" fill="#f6e7cb" data-color="2"/>
        <path d="M57.28 188.65v-.04c0-7.94 14.32-9.23 14.32-16.73 0-2.69-1.16-4.25-3.85-4.25-1.56 0-3.49.56-3.49 2.37 0 1.36 1.48 1.48 1.48 3.33 0 2.08-1.97 3.33-3.97 3.33-2.57 0-4.01-1.48-4.01-4.13 0-4.57 4.13-6.9 9.95-6.9h.04c4.89 0 11.27 1.8 11.27 7.62 0 8.82-16.65 12.63-16.65 17.93 0 .92.76 1.2 1.56 1.2 7.98-.04 13.28-5.7 14.64-7.18v7.54c0 1.12-.56 1.69-2.05 1.69H63.46c-5.09 0-6.18-2.61-6.18-5.78z" fill="#f6e7cb" data-color="2"/>
        <path d="M37.65 96.09V74.43c0-3.55-1-5.89-3.89-7.55l24.99-5.44v2.89c0 6.44-9.66 7.89-9.66 11.33 0 1.22.78 1.78 1.89 1.78 2.78 0 6.67-4.44 7.78-6.22 3.78-6.66 9.55-11.89 17.88-11.89 10.66 0 14.88 6.44 16.66 14.44 3.55-7.89 9.77-14.44 19.11-14.44 18.1 0 18.88 16.55 18.88 28.99v7.78c0 8.89 0 22.99 4 25.66h-29.1c4-2.67 4-16.77 4-25.66v-6.78c0-8-.67-15.44-7.77-15.44-7.66 0-8 10.66-8 19.77v2.44c0 8.89 0 22.99 4 25.66h-29.1c4-2.67 4-16.77 4-25.66v-6.78c0-8-.67-15.44-6.66-15.44-6 0-7.55 6.66-7.89 13.88v8.33c0 8.89 0 22.99 4 25.66h-29.1c3.98-2.66 3.98-16.76 3.98-25.65z" fill="#f6e7cb" data-color="2"/>
        <path d="M143.72 96.09V74.43c0-3.55-1-5.89-3.89-7.55l24.99-5.44V96.1c0 8.89 0 22.99 4 25.66h-29.1c4-2.68 4-16.78 4-25.67zM153.16 34c6.89 0 12.55 5.66 12.55 12.55 0 6.89-5.66 12.55-12.55 12.55-6.89 0-12.55-5.67-12.55-12.55 0-6.88 5.66-12.55 12.55-12.55z" fill="#f6e7cb" data-color="2"/>
        <path d="M172.71 91.54c0-21.44 14-31.32 29.43-31.32 12.33 0 23.55 5 23.55 13.66 0 5.55-6.89 7.11-10.33 7.11-7.33 0-11.22-3.44-11.22-7.22 0-5 4-2.11 4-4.44 0-1.67-2.89-3.33-6.11-3.33-9 0-12.22 7.22-8.77 25.55 2.33 12.44 7.89 21.55 15.88 21.55 4.55 0 10.77-2.44 14.11-9.44h5.55c-3.11 11.55-12.33 19.22-24.88 19.22-17.22-.02-31.21-9.91-31.21-31.34z" fill="#f6e7cb" data-color="2"/>
        <path d="M236.68 96.09V74.43c0-3.55-1-5.89-3.89-7.55l24.99-5.44v2.89c0 6.44-9.66 7.89-9.66 11.33 0 1.22.78 1.78 1.89 1.78 2.78 0 6.66-4.44 7.77-6.11 3.78-6.78 9.66-12 18.22-12h9v8.22c0 6-1.11 13.11-9.66 13.11-7.33 0-4-6.78-9.44-6.78-6.22 0-7.78 6.66-8.11 13.88v8.33c0 8.89 0 22.99 4 25.66h-29.1c3.99-2.67 3.99-16.77 3.99-25.66z" fill="#f6e7cb" data-color="2"/>
        <path d="M286.1 91.54c0-21.44 14-31.32 31.21-31.32 17.22 0 31.21 9.89 31.21 31.32 0 21.44-14 31.32-31.21 31.32s-31.21-9.89-31.21-31.32zm26.77 19.1c0 4-5.55.56-5.55 3.55 0 1.78 3.44 3.11 8.77 3.11 11.11 0 14.33-7.44 11.33-25.77s-8.33-25.55-13.66-25.55c-7.33 0-10.22 7.11-6.55 25.55 3.11 15.67 5.66 15.22 5.66 19.11z" fill="#f6e7cb" data-color="2"/>
        <path d="M113.83 195.09c-14.11 0-23.55-6.55-23.55-15.77 0-8.66 6.89-9.66 11.66-9.66 11.44 0 12.55 7.55 12.55 9.55 0 9.33-8.89 2.67-8.89 7.44 0 1.78 3.55 2.67 8.22 2.67 6.66 0 10.44-2.22 10.44-7.33 0-14.33-31.21-13.22-31.21-32.88 0-12.33 13.22-16.22 26.99-16.22 14.55 0 23.33 4.89 23.33 14.66 0 4-2.44 8.77-9.11 8.77-7.33 0-10.66-4.22-10.66-8.66 0-4 3.11-4.22 3.11-7.11 0-2.11-2.33-3.44-6.66-3.44-5.22 0-8.66 3.33-8.66 7.55 0 16.11 32.55 12.77 32.55 33.21 0 12.66-13.88 17.22-29.99 17.22h-.12z" fill="#f6e7cb" data-color="2"/>
        <path d="M145.92 163.99c0-21.44 14-31.32 29.43-31.32 11.88 0 23.1 5.78 23.99 16v1.22c-1.11 17.33-26.1 14.33-31.1 21.44 2.78 8.33 7.66 14.22 14.11 14.22 4.55 0 10.77-2.44 14.11-9.44h5.55c-3.11 11.55-12.33 19.22-24.88 19.22-17.21-.02-31.21-9.9-31.21-31.34zm13.11 5.44c2.55 0 4.78-1.78 7.66-4.11 6.11-4.78 15.99-7.11 16.44-16.11-.22-5.22-2.44-10.77-9.55-10.77-6 0-8.33 4.78-8.33 16.55 0 13.55-8.77 9.22-8.77 12.66 0 1 .55 1.78 2.55 1.78z" fill="#f6e7cb" data-color="2"/>
        <path d="M205.34 163.99c0-21.44 14-31.32 31.21-31.32 17.22 0 31.21 9.89 31.21 31.32 0 21.44-14 31.32-31.21 31.32s-31.21-9.88-31.21-31.32zm26.77 19.1c0 4-5.55.55-5.55 3.55 0 1.78 3.44 3.11 8.78 3.11 11.11 0 14.33-7.44 11.33-25.77s-8.33-25.55-13.66-25.55c-7.33 0-10.22 7.11-6.55 25.55 3.1 15.67 5.65 15.23 5.65 19.11z" fill="#f6e7cb" data-color="2"/>
        <path d="M275.65 167.32v-7.78c0-8.89 0-22.99-4-25.66h29.1c-4 2.67-4 16.77-4 25.66v6.78c0 8 .67 15.44 7.77 15.44 6 0 7.55-6.66 7.89-13.88v-8.33c0-8.89 0-22.99-4-25.66h29.1c-4 2.67-4 16.77-4 25.66v9c0 8.88 0 22.99 4 25.66h-25.1v-2.89c0-6.44 9.66-7.89 9.66-11.33 0-1.22-.78-1.78-1.89-1.78-2.78 0-6.66 4.44-7.78 6.22-3.78 6.66-9.55 11.88-17.88 11.88-18.1 0-18.87-16.55-18.87-28.99z" fill="#f6e7cb" data-color="2"/>
        <path d="M347.06 168.54v-40.1c0-3.56-1-5.89-3.89-7.55l24.99-5.44v53.09c0 8.88 0 22.99 4 25.66h-29.1c4-2.66 4-16.77 4-25.66z" fill="#f6e7cb" data-color="2"/>
        <path d="M35.45 229.17v-7.82c0-1.28-.36-2.13-1.4-2.73l9.02-1.96v1.04c0 2.33-3.49 2.85-3.49 4.09 0 .44.28.64.68.64 1 0 2.41-1.6 2.81-2.25 1.36-2.41 3.45-4.29 6.46-4.29 6.54 0 6.82 5.98 6.82 10.47v2.81c0 3.21 0 8.3 1.44 9.26H47.28c1.44-.96 1.44-6.06 1.44-9.26v-2.45c0-2.89-.24-5.58-2.81-5.58-2.17 0-2.73 2.41-2.85 5.01v3.01c0 3.21 0 8.3 1.44 9.26H34.01c1.44-.95 1.44-6.04 1.44-9.25z" fill="#ec6608" data-color="1"/>
        <path d="M60.84 229.17v-14.16c0-4.33 2.61-5.13 7.58-5.13h5.21v2.09c0 2.08-.76 3.37-3.29 3.37-3.25 0-2.81-3.33-4.57-3.33-.52 0-.8.2-.8.72 0 1.16 3.49 1.52 3.49 3.97v.04h3.57v2.01h-3.57v10.43c0 3.21 0 8.3 1.44 9.26H59.39c1.45-.97 1.45-6.06 1.45-9.27z" fill="#ec6608" data-color="1"/>
        <path d="M76.64 230.81v-12.15h-1.4v-2c3.65 0 4.61-5.7 7.42-5.7h1.6v3.29c0 2.33-3.49 2.85-3.49 4.09 0 .44.28.64.68.64 1 0 2.41-1.6 2.81-2.25h2.77v2.01h-2.77v11.59c0 3.29.32 6.1 2.77 6.1v2.01H85.9c-8.62-.01-9.26-2.37-9.26-7.63z" fill="#ec6608" data-color="1"/>
        <path d="M105.16 238.75c-5.09 0-8.5-2.37-8.5-5.7 0-3.13 2.49-3.49 4.21-3.49 4.13 0 4.53 2.73 4.53 3.45 0 3.37-3.21.96-3.21 2.69 0 .64 1.28.96 2.97.96 2.41 0 3.77-.8 3.77-2.65 0-5.17-11.27-4.77-11.27-11.87 0-4.45 4.77-5.86 9.75-5.86 5.25 0 8.42 1.77 8.42 5.29 0 1.44-.88 3.17-3.29 3.17-2.65 0-3.85-1.52-3.85-3.13 0-1.44 1.12-1.52 1.12-2.57 0-.76-.84-1.24-2.41-1.24-1.89 0-3.13 1.2-3.13 2.73 0 5.82 11.75 4.61 11.75 11.99 0 4.57-5.01 6.22-10.83 6.22l-.03.01z" fill="#ec6608" data-color="1"/>
        <path d="M116.75 227.52c0-7.74 5.05-11.31 11.27-11.31s11.27 3.57 11.27 11.31-5.05 11.31-11.27 11.31-11.27-3.56-11.27-11.31zm9.66 6.9c0 1.44-2.01.2-2.01 1.28 0 .64 1.24 1.12 3.17 1.12 4.01 0 5.17-2.69 4.09-9.31-1.08-6.62-3.01-9.23-4.93-9.23-2.65 0-3.69 2.57-2.37 9.23 1.13 5.67 2.05 5.51 2.05 6.91z" fill="#ec6608" data-color="1"/>
        <path d="M142.13 228.73v-2.81c0-3.21 0-8.3-1.44-9.26h10.51c-1.44.96-1.44 6.06-1.44 9.26v2.45c0 2.89.24 5.58 2.81 5.58 2.17 0 2.73-2.41 2.85-5.01v-3.01c0-3.21 0-8.3-1.44-9.26h10.51c-1.44.96-1.44 6.06-1.44 9.26v3.25c0 3.21 0 8.3 1.44 9.26h-9.06v-1.04c0-2.33 3.49-2.85 3.49-4.09 0-.44-.28-.64-.68-.64-1 0-2.41 1.6-2.81 2.25-1.36 2.41-3.45 4.29-6.46 4.29-6.56-.01-6.84-5.99-6.84-10.48z" fill="#ec6608" data-color="1"/>
        <path d="M167.52 229.17v-7.82c0-1.28-.36-2.13-1.4-2.73l9.03-1.96v1.04c0 2.33-3.49 2.85-3.49 4.09 0 .44.28.64.68.64 1 0 2.41-1.6 2.81-2.25 1.36-2.41 3.45-4.29 6.46-4.29 6.54 0 6.82 5.98 6.82 10.47v2.81c0 3.21 0 8.3 1.44 9.26h-10.51c1.44-.96 1.44-6.06 1.44-9.26v-2.45c0-2.89-.24-5.58-2.81-5.58-2.17 0-2.73 2.41-2.85 5.01v3.01c0 3.21 0 8.3 1.44 9.26h-10.51c1.45-.95 1.45-6.04 1.45-9.25z" fill="#ec6608" data-color="1"/>
        <path d="M191.26 229.21c0-9.91 4.81-12.95 9.79-12.95 1.93 0 3.21.6 4.13 1.48v-3.05c0-1.28-.36-2.13-1.4-2.73l9.02-1.97v19.17c0 3.21 0 8.3 1.44 9.26h-9.06v-1.04c0-2.33 3.49-2.85 3.49-4.09 0-.44-.28-.64-.68-.64-.96 0-2.25 1.44-2.73 2.13-1.32 2.45-3.33 4.29-6.18 4.29-5.85 0-7.82-5.45-7.82-9.86zm11.07 4.73c2.17 0 2.73-2.41 2.85-5.01v-5.53c0-4.65-1.8-5.13-3.21-5.13-2.33 0-4.09 2.21-3.37 8.74.37 3.4 1.49 6.93 3.73 6.93z" fill="#ec6608" data-color="1"/>
        <path d="M225.31 229.17v-14.16c0-4.33 2.61-5.13 7.58-5.13h5.21v2.09c0 2.08-.76 3.37-3.29 3.37-3.25 0-2.81-3.33-4.57-3.33-.52 0-.8.2-.8.72 0 1.16 3.49 1.52 3.49 3.97v.04h3.57v2.01h-3.57v10.43c0 3.21 0 8.3 1.44 9.26h-10.51c1.45-.97 1.45-6.06 1.45-9.27z" fill="#ec6608" data-color="1"/>
        <path d="M237.31 227.52c0-7.74 5.05-11.31 10.63-11.31 4.29 0 8.34 2.08 8.66 5.78v.44c-.4 6.26-9.43 5.17-11.23 7.74 1 3.01 2.77 5.13 5.09 5.13 1.64 0 3.89-.88 5.09-3.41h2.01c-1.12 4.17-4.45 6.94-8.98 6.94-6.22 0-11.27-3.56-11.27-11.31zm4.73 1.97c.92 0 1.72-.64 2.77-1.48 2.21-1.72 5.78-2.57 5.94-5.82-.08-1.88-.88-3.89-3.45-3.89-2.17 0-3.01 1.72-3.01 5.98 0 4.89-3.17 3.33-3.17 4.57 0 .36.2.64.92.64z" fill="#ec6608" data-color="1"/>
        <path d="M267.47 238.75c-5.09 0-8.5-2.37-8.5-5.7 0-3.13 2.49-3.49 4.21-3.49 4.13 0 4.53 2.73 4.53 3.45 0 3.37-3.21.96-3.21 2.69 0 .64 1.28.96 2.97.96 2.41 0 3.77-.8 3.77-2.65 0-5.17-11.27-4.77-11.27-11.87 0-4.45 4.77-5.86 9.75-5.86 5.25 0 8.42 1.77 8.42 5.29 0 1.44-.88 3.17-3.29 3.17-2.65 0-3.85-1.52-3.85-3.13 0-1.44 1.12-1.52 1.12-2.57 0-.76-.84-1.24-2.41-1.24-1.89 0-3.13 1.2-3.13 2.73 0 5.82 11.75 4.61 11.75 11.99 0 4.57-5.01 6.22-10.83 6.22l-.03.01z" fill="#ec6608" data-color="1"/>
        <path d="M280.66 230.81v-12.15h-1.4v-2c3.65 0 4.61-5.7 7.42-5.7h1.6v3.29c0 2.33-3.49 2.85-3.49 4.09 0 .44.28.64.68.64 1 0 2.41-1.6 2.81-2.25h2.77v2.01h-2.77v11.59c0 3.29.32 6.1 2.77 6.1v2.01h-1.12c-8.63-.01-9.27-2.37-9.27-7.63z" fill="#ec6608" data-color="1"/>
        <path d="M292.65 231.17c0-5.9 4.81-8.94 9.79-8.94 1.93 0 3.25.64 4.17 1.52v-1.04c0-2.37-.64-4.77-4.37-4.77-.72 0-1.8.12-1.8.96 0 .96 1.08.56 1.08 1.76 0 1.12-1.16 1.8-3.81 1.8-2.41 0-3.29-1.24-3.29-2.37 0-2.53 3.01-3.69 7.82-3.69 9.83 0 11.99 4.69 11.99 8.82v3.93c0 3.21 0 8.3 1.44 9.26h-8.7v-.68c0-2.93 3.49-2.85 3.49-4.09 0-.44-.28-.64-.68-.64-.88 0-2.21 1.4-2.77 2.05-1.28 2.21-3.37 4.01-6.54 4.01-5.61.01-7.82-3.67-7.82-7.89zm11.15 2.77c1.85 0 2.81-2.25 2.81-4.73v-.2c0-4.65-2.77-4.77-3.49-4.77-2.21 0-3.33 2.85-2.97 6.18.29 2.6 1.61 3.52 3.65 3.52z" fill="#ec6608" data-color="1"/>
    </g>
</svg>
